<mxfile host="app.diagrams.net" agent="Mozilla/5.0 (Windows NT 10.0; Win64; x64) AppleWebKit/537.36 (KHTML, like Gecko) Chrome/129.0.0.0 Safari/537.36" version="24.7.16">
  <diagram id="R2lEEEUBdFMjLlhIrx00" name="Page-1">
    <mxGraphModel dx="1725" dy="-665" grid="1" gridSize="10" guides="1" tooltips="1" connect="1" arrows="1" fold="1" page="1" pageScale="1" pageWidth="850" pageHeight="1100" math="0" shadow="0" extFonts="Permanent Marker^https://fonts.googleapis.com/css?family=Permanent+Marker">
      <root>
        <mxCell id="0" />
        <mxCell id="1" parent="0" />
        <mxCell id="23kF0OT1ndb0dFso3XJ4-34" style="edgeStyle=orthogonalEdgeStyle;rounded=0;orthogonalLoop=1;jettySize=auto;html=1;entryX=0;entryY=0.5;entryDx=0;entryDy=0;endArrow=none;endFill=0;" parent="1" source="23kF0OT1ndb0dFso3XJ4-1" target="23kF0OT1ndb0dFso3XJ4-33" edge="1">
          <mxGeometry relative="1" as="geometry" />
        </mxCell>
        <mxCell id="23kF0OT1ndb0dFso3XJ4-41" value="1" style="edgeLabel;html=1;align=center;verticalAlign=middle;resizable=0;points=[];" parent="23kF0OT1ndb0dFso3XJ4-34" vertex="1" connectable="0">
          <mxGeometry x="-0.0333" y="1" relative="1" as="geometry">
            <mxPoint y="-9" as="offset" />
          </mxGeometry>
        </mxCell>
        <mxCell id="23kF0OT1ndb0dFso3XJ4-1" value="Пользователь" style="whiteSpace=wrap;html=1;align=center;" parent="1" vertex="1">
          <mxGeometry x="1500" y="1870" width="100" height="40" as="geometry" />
        </mxCell>
        <mxCell id="23kF0OT1ndb0dFso3XJ4-40" style="edgeStyle=orthogonalEdgeStyle;rounded=0;orthogonalLoop=1;jettySize=auto;html=1;entryX=0;entryY=0.5;entryDx=0;entryDy=0;" parent="1" source="23kF0OT1ndb0dFso3XJ4-33" target="23kF0OT1ndb0dFso3XJ4-37" edge="1">
          <mxGeometry relative="1" as="geometry" />
        </mxCell>
        <mxCell id="23kF0OT1ndb0dFso3XJ4-56" value="1" style="edgeLabel;html=1;align=center;verticalAlign=middle;resizable=0;points=[];" parent="23kF0OT1ndb0dFso3XJ4-40" vertex="1" connectable="0">
          <mxGeometry x="-0.2431" relative="1" as="geometry">
            <mxPoint x="5" y="-10" as="offset" />
          </mxGeometry>
        </mxCell>
        <mxCell id="23kF0OT1ndb0dFso3XJ4-33" value="Смотрит" style="shape=rhombus;perimeter=rhombusPerimeter;whiteSpace=wrap;html=1;align=center;" parent="1" vertex="1">
          <mxGeometry x="1660" y="1860" width="120" height="60" as="geometry" />
        </mxCell>
        <mxCell id="23kF0OT1ndb0dFso3XJ4-46" style="edgeStyle=orthogonalEdgeStyle;rounded=0;orthogonalLoop=1;jettySize=auto;html=1;entryX=0;entryY=0.5;entryDx=0;entryDy=0;endArrow=none;endFill=0;" parent="1" source="23kF0OT1ndb0dFso3XJ4-37" target="23kF0OT1ndb0dFso3XJ4-45" edge="1">
          <mxGeometry relative="1" as="geometry" />
        </mxCell>
        <mxCell id="23kF0OT1ndb0dFso3XJ4-47" value="1" style="edgeLabel;html=1;align=center;verticalAlign=middle;resizable=0;points=[];" parent="23kF0OT1ndb0dFso3XJ4-46" vertex="1" connectable="0">
          <mxGeometry x="-0.0762" relative="1" as="geometry">
            <mxPoint y="-10" as="offset" />
          </mxGeometry>
        </mxCell>
        <mxCell id="23kF0OT1ndb0dFso3XJ4-37" value="Статус посылки&amp;nbsp;" style="whiteSpace=wrap;html=1;align=center;" parent="1" vertex="1">
          <mxGeometry x="1820" y="1870" width="100" height="40" as="geometry" />
        </mxCell>
        <mxCell id="23kF0OT1ndb0dFso3XJ4-49" style="edgeStyle=orthogonalEdgeStyle;rounded=0;orthogonalLoop=1;jettySize=auto;html=1;entryX=0;entryY=0.5;entryDx=0;entryDy=0;endArrow=none;endFill=0;" parent="1" source="23kF0OT1ndb0dFso3XJ4-45" target="23kF0OT1ndb0dFso3XJ4-48" edge="1">
          <mxGeometry relative="1" as="geometry" />
        </mxCell>
        <mxCell id="23kF0OT1ndb0dFso3XJ4-50" value="N" style="edgeLabel;html=1;align=center;verticalAlign=middle;resizable=0;points=[];" parent="23kF0OT1ndb0dFso3XJ4-49" vertex="1" connectable="0">
          <mxGeometry x="-0.18" relative="1" as="geometry">
            <mxPoint y="-10" as="offset" />
          </mxGeometry>
        </mxCell>
        <mxCell id="23kF0OT1ndb0dFso3XJ4-45" value="Содержит" style="shape=rhombus;perimeter=rhombusPerimeter;whiteSpace=wrap;html=1;align=center;" parent="1" vertex="1">
          <mxGeometry x="1960" y="1860" width="120" height="60" as="geometry" />
        </mxCell>
        <mxCell id="23kF0OT1ndb0dFso3XJ4-48" value="Информация" style="whiteSpace=wrap;html=1;align=center;" parent="1" vertex="1">
          <mxGeometry x="2120" y="1870" width="100" height="40" as="geometry" />
        </mxCell>
        <mxCell id="23kF0OT1ndb0dFso3XJ4-63" style="edgeStyle=orthogonalEdgeStyle;rounded=0;orthogonalLoop=1;jettySize=auto;html=1;entryX=0.5;entryY=0;entryDx=0;entryDy=0;endArrow=none;endFill=0;" parent="1" source="23kF0OT1ndb0dFso3XJ4-61" target="23kF0OT1ndb0dFso3XJ4-62" edge="1">
          <mxGeometry relative="1" as="geometry" />
        </mxCell>
        <mxCell id="23kF0OT1ndb0dFso3XJ4-64" value="1" style="edgeLabel;html=1;align=center;verticalAlign=middle;resizable=0;points=[];" parent="23kF0OT1ndb0dFso3XJ4-63" vertex="1" connectable="0">
          <mxGeometry x="-0.1901" relative="1" as="geometry">
            <mxPoint x="10" as="offset" />
          </mxGeometry>
        </mxCell>
        <mxCell id="23kF0OT1ndb0dFso3XJ4-61" value="Пользователь" style="whiteSpace=wrap;html=1;align=center;" parent="1" vertex="1">
          <mxGeometry x="1732.5" y="2020" width="100" height="40" as="geometry" />
        </mxCell>
        <mxCell id="23kF0OT1ndb0dFso3XJ4-66" style="edgeStyle=orthogonalEdgeStyle;rounded=0;orthogonalLoop=1;jettySize=auto;html=1;entryX=0.5;entryY=0;entryDx=0;entryDy=0;endArrow=none;endFill=0;" parent="1" source="23kF0OT1ndb0dFso3XJ4-62" target="23kF0OT1ndb0dFso3XJ4-65" edge="1">
          <mxGeometry relative="1" as="geometry" />
        </mxCell>
        <mxCell id="23kF0OT1ndb0dFso3XJ4-67" value="N" style="edgeLabel;html=1;align=center;verticalAlign=middle;resizable=0;points=[];" parent="23kF0OT1ndb0dFso3XJ4-66" vertex="1" connectable="0">
          <mxGeometry x="-0.219" y="-2" relative="1" as="geometry">
            <mxPoint x="12" as="offset" />
          </mxGeometry>
        </mxCell>
        <mxCell id="23kF0OT1ndb0dFso3XJ4-62" value="Имеет" style="shape=rhombus;perimeter=rhombusPerimeter;whiteSpace=wrap;html=1;align=center;" parent="1" vertex="1">
          <mxGeometry x="1722.5" y="2120" width="120" height="60" as="geometry" />
        </mxCell>
        <mxCell id="23kF0OT1ndb0dFso3XJ4-65" value="Посылка" style="whiteSpace=wrap;html=1;align=center;" parent="1" vertex="1">
          <mxGeometry x="1732.5" y="2240" width="100" height="40" as="geometry" />
        </mxCell>
        <mxCell id="23kF0OT1ndb0dFso3XJ4-71" style="edgeStyle=orthogonalEdgeStyle;rounded=0;orthogonalLoop=1;jettySize=auto;html=1;entryX=0.5;entryY=0;entryDx=0;entryDy=0;endArrow=none;endFill=0;" parent="1" source="23kF0OT1ndb0dFso3XJ4-68" target="23kF0OT1ndb0dFso3XJ4-70" edge="1">
          <mxGeometry relative="1" as="geometry" />
        </mxCell>
        <mxCell id="23kF0OT1ndb0dFso3XJ4-105" value="1" style="edgeLabel;html=1;align=center;verticalAlign=middle;resizable=0;points=[];" parent="23kF0OT1ndb0dFso3XJ4-71" vertex="1" connectable="0">
          <mxGeometry x="-0.0123" y="-1" relative="1" as="geometry">
            <mxPoint x="11" as="offset" />
          </mxGeometry>
        </mxCell>
        <mxCell id="23kF0OT1ndb0dFso3XJ4-68" value="Посылка" style="whiteSpace=wrap;html=1;align=center;" parent="1" vertex="1">
          <mxGeometry x="2002.5" y="2020" width="100" height="40" as="geometry" />
        </mxCell>
        <mxCell id="23kF0OT1ndb0dFso3XJ4-78" style="edgeStyle=orthogonalEdgeStyle;rounded=0;orthogonalLoop=1;jettySize=auto;html=1;entryX=0.5;entryY=0;entryDx=0;entryDy=0;endArrow=none;endFill=0;" parent="1" source="23kF0OT1ndb0dFso3XJ4-70" target="23kF0OT1ndb0dFso3XJ4-77" edge="1">
          <mxGeometry relative="1" as="geometry" />
        </mxCell>
        <mxCell id="23kF0OT1ndb0dFso3XJ4-106" value="N" style="edgeLabel;html=1;align=center;verticalAlign=middle;resizable=0;points=[];" parent="23kF0OT1ndb0dFso3XJ4-78" vertex="1" connectable="0">
          <mxGeometry x="-0.0762" relative="1" as="geometry">
            <mxPoint x="10" as="offset" />
          </mxGeometry>
        </mxCell>
        <mxCell id="23kF0OT1ndb0dFso3XJ4-70" value="Имеет" style="shape=rhombus;perimeter=rhombusPerimeter;whiteSpace=wrap;html=1;align=center;" parent="1" vertex="1">
          <mxGeometry x="1992.5" y="2120" width="120" height="60" as="geometry" />
        </mxCell>
        <mxCell id="23kF0OT1ndb0dFso3XJ4-80" style="edgeStyle=orthogonalEdgeStyle;rounded=0;orthogonalLoop=1;jettySize=auto;html=1;entryX=0.5;entryY=0;entryDx=0;entryDy=0;endArrow=none;endFill=0;" parent="1" source="23kF0OT1ndb0dFso3XJ4-77" target="23kF0OT1ndb0dFso3XJ4-79" edge="1">
          <mxGeometry relative="1" as="geometry">
            <Array as="points">
              <mxPoint x="1922.5" y="2260" />
            </Array>
          </mxGeometry>
        </mxCell>
        <mxCell id="23kF0OT1ndb0dFso3XJ4-84" style="edgeStyle=orthogonalEdgeStyle;rounded=0;orthogonalLoop=1;jettySize=auto;html=1;entryX=0.5;entryY=0;entryDx=0;entryDy=0;endArrow=none;endFill=0;" parent="1" source="23kF0OT1ndb0dFso3XJ4-77" target="23kF0OT1ndb0dFso3XJ4-83" edge="1">
          <mxGeometry relative="1" as="geometry" />
        </mxCell>
        <mxCell id="23kF0OT1ndb0dFso3XJ4-86" style="edgeStyle=orthogonalEdgeStyle;rounded=0;orthogonalLoop=1;jettySize=auto;html=1;entryX=0.5;entryY=0;entryDx=0;entryDy=0;endArrow=none;endFill=0;" parent="1" source="23kF0OT1ndb0dFso3XJ4-77" target="23kF0OT1ndb0dFso3XJ4-85" edge="1">
          <mxGeometry relative="1" as="geometry" />
        </mxCell>
        <mxCell id="23kF0OT1ndb0dFso3XJ4-102" style="edgeStyle=orthogonalEdgeStyle;rounded=0;orthogonalLoop=1;jettySize=auto;html=1;entryX=0.5;entryY=0;entryDx=0;entryDy=0;endArrow=none;endFill=0;" parent="1" source="23kF0OT1ndb0dFso3XJ4-77" target="23kF0OT1ndb0dFso3XJ4-101" edge="1">
          <mxGeometry relative="1" as="geometry" />
        </mxCell>
        <mxCell id="23kF0OT1ndb0dFso3XJ4-104" style="edgeStyle=orthogonalEdgeStyle;rounded=0;orthogonalLoop=1;jettySize=auto;html=1;entryX=0.5;entryY=0;entryDx=0;entryDy=0;endArrow=none;endFill=0;" parent="1" source="23kF0OT1ndb0dFso3XJ4-77" edge="1">
          <mxGeometry relative="1" as="geometry">
            <mxPoint x="2052.5" y="2330" as="targetPoint" />
          </mxGeometry>
        </mxCell>
        <mxCell id="23kF0OT1ndb0dFso3XJ4-77" value="Информация" style="whiteSpace=wrap;html=1;align=center;" parent="1" vertex="1">
          <mxGeometry x="2002.5" y="2240" width="100" height="40" as="geometry" />
        </mxCell>
        <mxCell id="23kF0OT1ndb0dFso3XJ4-79" value="Трек-номер" style="ellipse;whiteSpace=wrap;html=1;align=center;" parent="1" vertex="1">
          <mxGeometry x="1862.5" y="2330" width="120" height="50" as="geometry" />
        </mxCell>
        <mxCell id="23kF0OT1ndb0dFso3XJ4-83" value="Имя отправителя" style="ellipse;whiteSpace=wrap;html=1;align=center;" parent="1" vertex="1">
          <mxGeometry x="2122.5" y="2330" width="130" height="50" as="geometry" />
        </mxCell>
        <mxCell id="23kF0OT1ndb0dFso3XJ4-85" value="Имя получателя" style="ellipse;whiteSpace=wrap;html=1;align=center;" parent="1" vertex="1">
          <mxGeometry x="2262.5" y="2330" width="120" height="50" as="geometry" />
        </mxCell>
        <mxCell id="23kF0OT1ndb0dFso3XJ4-101" value="Ориентировочная дата доставки" style="ellipse;whiteSpace=wrap;html=1;align=center;" parent="1" vertex="1">
          <mxGeometry x="2392.5" y="2330" width="130" height="50" as="geometry" />
        </mxCell>
        <mxCell id="23kF0OT1ndb0dFso3XJ4-160" style="edgeStyle=orthogonalEdgeStyle;rounded=0;orthogonalLoop=1;jettySize=auto;html=1;entryX=0.5;entryY=1;entryDx=0;entryDy=0;" parent="1" source="23kF0OT1ndb0dFso3XJ4-161" target="23kF0OT1ndb0dFso3XJ4-148" edge="1">
          <mxGeometry relative="1" as="geometry" />
        </mxCell>
        <mxCell id="23kF0OT1ndb0dFso3XJ4-164" value="N" style="edgeLabel;html=1;align=center;verticalAlign=middle;resizable=0;points=[];" parent="23kF0OT1ndb0dFso3XJ4-160" vertex="1" connectable="0">
          <mxGeometry x="-0.0774" y="1" relative="1" as="geometry">
            <mxPoint x="6" as="offset" />
          </mxGeometry>
        </mxCell>
        <mxCell id="23kF0OT1ndb0dFso3XJ4-176" style="edgeStyle=orthogonalEdgeStyle;rounded=0;orthogonalLoop=1;jettySize=auto;html=1;entryX=0.5;entryY=0;entryDx=0;entryDy=0;" parent="1" source="23kF0OT1ndb0dFso3XJ4-147" target="23kF0OT1ndb0dFso3XJ4-172" edge="1">
          <mxGeometry relative="1" as="geometry" />
        </mxCell>
        <mxCell id="23kF0OT1ndb0dFso3XJ4-220" value="1" style="edgeLabel;html=1;align=center;verticalAlign=middle;resizable=0;points=[];" parent="23kF0OT1ndb0dFso3XJ4-176" vertex="1" connectable="0">
          <mxGeometry x="0.5317" relative="1" as="geometry">
            <mxPoint x="15" as="offset" />
          </mxGeometry>
        </mxCell>
        <mxCell id="23kF0OT1ndb0dFso3XJ4-177" style="edgeStyle=orthogonalEdgeStyle;rounded=0;orthogonalLoop=1;jettySize=auto;html=1;entryX=0.5;entryY=0;entryDx=0;entryDy=0;" parent="1" source="23kF0OT1ndb0dFso3XJ4-147" target="23kF0OT1ndb0dFso3XJ4-173" edge="1">
          <mxGeometry relative="1" as="geometry" />
        </mxCell>
        <mxCell id="23kF0OT1ndb0dFso3XJ4-221" value="1" style="edgeLabel;html=1;align=center;verticalAlign=middle;resizable=0;points=[];" parent="23kF0OT1ndb0dFso3XJ4-177" vertex="1" connectable="0">
          <mxGeometry x="-0.1714" y="-3" relative="1" as="geometry">
            <mxPoint x="8" as="offset" />
          </mxGeometry>
        </mxCell>
        <mxCell id="23kF0OT1ndb0dFso3XJ4-178" style="edgeStyle=orthogonalEdgeStyle;rounded=0;orthogonalLoop=1;jettySize=auto;html=1;entryX=0.5;entryY=0;entryDx=0;entryDy=0;exitX=1;exitY=0.5;exitDx=0;exitDy=0;" parent="1" source="23kF0OT1ndb0dFso3XJ4-147" edge="1">
          <mxGeometry relative="1" as="geometry">
            <mxPoint x="1135" y="2151" as="sourcePoint" />
            <mxPoint x="1235" y="2230" as="targetPoint" />
          </mxGeometry>
        </mxCell>
        <mxCell id="cS1RMMrcoIdH4QqEZmh_-28" value="1" style="edgeLabel;html=1;align=center;verticalAlign=middle;resizable=0;points=[];" vertex="1" connectable="0" parent="23kF0OT1ndb0dFso3XJ4-178">
          <mxGeometry x="-0.249" y="-1" relative="1" as="geometry">
            <mxPoint x="45" y="39" as="offset" />
          </mxGeometry>
        </mxCell>
        <mxCell id="23kF0OT1ndb0dFso3XJ4-147" value="Оператор" style="whiteSpace=wrap;html=1;align=center;" parent="1" vertex="1">
          <mxGeometry x="1030" y="2130" width="100" height="40" as="geometry" />
        </mxCell>
        <mxCell id="23kF0OT1ndb0dFso3XJ4-148" value="Аккаунт" style="whiteSpace=wrap;html=1;align=center;" parent="1" vertex="1">
          <mxGeometry x="1030" y="1910" width="100" height="40" as="geometry" />
        </mxCell>
        <mxCell id="23kF0OT1ndb0dFso3XJ4-149" value="ФИО&lt;span style=&quot;color: rgba(0, 0, 0, 0); font-family: monospace; font-size: 0px; text-align: start; text-wrap: nowrap;&quot;&gt;%3CmxGraphModel%3E%3Croot%3E%3CmxCell%20id%3D%220%22%2F%3E%3CmxCell%20id%3D%221%22%20parent%3D%220%22%2F%3E%3CmxCell%20id%3D%222%22%20value%3D%22%22%20style%3D%22endArrow%3Dnone%3Bhtml%3D1%3Brounded%3D0%3BentryX%3D0.5%3BentryY%3D0%3BentryDx%3D0%3BentryDy%3D0%3BexitX%3D0.5%3BexitY%3D1%3BexitDx%3D0%3BexitDy%3D0%3B%22%20edge%3D%221%22%20parent%3D%221%22%3E%3CmxGeometry%20relative%3D%221%22%20as%3D%22geometry%22%3E%3CmxPoint%20x%3D%22400%22%20y%3D%22240%22%20as%3D%22sourcePoint%22%2F%3E%3CmxPoint%20x%3D%22400%22%20y%3D%22320%22%20as%3D%22targetPoint%22%2F%3E%3C%2FmxGeometry%3E%3C%2FmxCell%3E%3C%2Froot%3E%3C%2FmxGraphModel%3E&lt;/span&gt;" style="ellipse;whiteSpace=wrap;html=1;align=center;" parent="1" vertex="1">
          <mxGeometry x="870" y="1820" width="100" height="40" as="geometry" />
        </mxCell>
        <mxCell id="23kF0OT1ndb0dFso3XJ4-150" value="Электронная почта" style="ellipse;whiteSpace=wrap;html=1;align=center;" parent="1" vertex="1">
          <mxGeometry x="1000" y="1820" width="100" height="40" as="geometry" />
        </mxCell>
        <mxCell id="23kF0OT1ndb0dFso3XJ4-151" value="Пароль" style="ellipse;whiteSpace=wrap;html=1;align=center;" parent="1" vertex="1">
          <mxGeometry x="1130" y="1820" width="100" height="40" as="geometry" />
        </mxCell>
        <mxCell id="23kF0OT1ndb0dFso3XJ4-152" value="Номер телефона" style="ellipse;whiteSpace=wrap;html=1;align=center;" parent="1" vertex="1">
          <mxGeometry x="1260" y="1820" width="125" height="40" as="geometry" />
        </mxCell>
        <mxCell id="23kF0OT1ndb0dFso3XJ4-153" value="Фото сотрудника" style="ellipse;shape=doubleEllipse;margin=3;whiteSpace=wrap;html=1;align=center;" parent="1" vertex="1">
          <mxGeometry x="750" y="1820" width="100" height="40" as="geometry" />
        </mxCell>
        <mxCell id="23kF0OT1ndb0dFso3XJ4-154" value="" style="endArrow=none;html=1;rounded=0;entryX=0.5;entryY=1;entryDx=0;entryDy=0;exitX=0.5;exitY=0;exitDx=0;exitDy=0;" parent="1" source="23kF0OT1ndb0dFso3XJ4-148" target="23kF0OT1ndb0dFso3XJ4-153" edge="1">
          <mxGeometry relative="1" as="geometry">
            <mxPoint x="1090" y="2030" as="sourcePoint" />
            <mxPoint x="1090" y="1960" as="targetPoint" />
          </mxGeometry>
        </mxCell>
        <mxCell id="23kF0OT1ndb0dFso3XJ4-155" value="" style="endArrow=none;html=1;rounded=0;entryX=0.5;entryY=1;entryDx=0;entryDy=0;exitX=0.5;exitY=0;exitDx=0;exitDy=0;" parent="1" source="23kF0OT1ndb0dFso3XJ4-148" target="23kF0OT1ndb0dFso3XJ4-149" edge="1">
          <mxGeometry relative="1" as="geometry">
            <mxPoint x="1090" y="1920" as="sourcePoint" />
            <mxPoint x="810" y="1870" as="targetPoint" />
          </mxGeometry>
        </mxCell>
        <mxCell id="23kF0OT1ndb0dFso3XJ4-156" value="" style="endArrow=none;html=1;rounded=0;entryX=0.5;entryY=1;entryDx=0;entryDy=0;exitX=0.5;exitY=0;exitDx=0;exitDy=0;" parent="1" source="23kF0OT1ndb0dFso3XJ4-148" target="23kF0OT1ndb0dFso3XJ4-150" edge="1">
          <mxGeometry relative="1" as="geometry">
            <mxPoint x="1080" y="1910" as="sourcePoint" />
            <mxPoint x="930" y="1870" as="targetPoint" />
          </mxGeometry>
        </mxCell>
        <mxCell id="23kF0OT1ndb0dFso3XJ4-157" value="" style="endArrow=none;html=1;rounded=0;entryX=0.5;entryY=1;entryDx=0;entryDy=0;exitX=0.5;exitY=0;exitDx=0;exitDy=0;" parent="1" source="23kF0OT1ndb0dFso3XJ4-148" target="23kF0OT1ndb0dFso3XJ4-151" edge="1">
          <mxGeometry relative="1" as="geometry">
            <mxPoint x="1100" y="1930" as="sourcePoint" />
            <mxPoint x="940" y="1880" as="targetPoint" />
          </mxGeometry>
        </mxCell>
        <mxCell id="23kF0OT1ndb0dFso3XJ4-158" value="" style="endArrow=none;html=1;rounded=0;entryX=0.5;entryY=0;entryDx=0;entryDy=0;exitX=0.5;exitY=1;exitDx=0;exitDy=0;" parent="1" source="23kF0OT1ndb0dFso3XJ4-152" target="23kF0OT1ndb0dFso3XJ4-148" edge="1">
          <mxGeometry relative="1" as="geometry">
            <mxPoint x="1110" y="1940" as="sourcePoint" />
            <mxPoint x="950" y="1890" as="targetPoint" />
          </mxGeometry>
        </mxCell>
        <mxCell id="23kF0OT1ndb0dFso3XJ4-162" value="" style="edgeStyle=orthogonalEdgeStyle;rounded=0;orthogonalLoop=1;jettySize=auto;html=1;entryX=0.5;entryY=1;entryDx=0;entryDy=0;" parent="1" source="23kF0OT1ndb0dFso3XJ4-147" target="23kF0OT1ndb0dFso3XJ4-161" edge="1">
          <mxGeometry relative="1" as="geometry">
            <mxPoint x="1085" y="2140" as="sourcePoint" />
            <mxPoint x="1080" y="1950" as="targetPoint" />
          </mxGeometry>
        </mxCell>
        <mxCell id="23kF0OT1ndb0dFso3XJ4-163" value="1" style="edgeLabel;html=1;align=center;verticalAlign=middle;resizable=0;points=[];" parent="23kF0OT1ndb0dFso3XJ4-162" vertex="1" connectable="0">
          <mxGeometry x="0.0191" y="2" relative="1" as="geometry">
            <mxPoint x="7" as="offset" />
          </mxGeometry>
        </mxCell>
        <mxCell id="23kF0OT1ndb0dFso3XJ4-161" value="Имеет" style="shape=rhombus;perimeter=rhombusPerimeter;whiteSpace=wrap;html=1;align=center;" parent="1" vertex="1">
          <mxGeometry x="1020" y="2020" width="120" height="60" as="geometry" />
        </mxCell>
        <mxCell id="23kF0OT1ndb0dFso3XJ4-172" value="Редактирует" style="shape=rhombus;perimeter=rhombusPerimeter;whiteSpace=wrap;html=1;align=center;" parent="1" vertex="1">
          <mxGeometry x="860" y="2220" width="120" height="60" as="geometry" />
        </mxCell>
        <mxCell id="23kF0OT1ndb0dFso3XJ4-173" value="Создает" style="shape=rhombus;perimeter=rhombusPerimeter;whiteSpace=wrap;html=1;align=center;" parent="1" vertex="1">
          <mxGeometry x="1020" y="2220" width="120" height="60" as="geometry" />
        </mxCell>
        <mxCell id="23kF0OT1ndb0dFso3XJ4-174" value="Просматривает" style="shape=rhombus;perimeter=rhombusPerimeter;whiteSpace=wrap;html=1;align=center;" parent="1" vertex="1">
          <mxGeometry x="1175" y="2220" width="120" height="60" as="geometry" />
        </mxCell>
        <mxCell id="23kF0OT1ndb0dFso3XJ4-179" value="Данные о посылке" style="whiteSpace=wrap;html=1;align=center;" parent="1" vertex="1">
          <mxGeometry x="1030" y="2350" width="100" height="40" as="geometry" />
        </mxCell>
        <mxCell id="23kF0OT1ndb0dFso3XJ4-213" value="" style="endArrow=none;html=1;rounded=0;entryX=0.5;entryY=0;entryDx=0;entryDy=0;exitX=0.5;exitY=1;exitDx=0;exitDy=0;" parent="1" source="23kF0OT1ndb0dFso3XJ4-172" target="23kF0OT1ndb0dFso3XJ4-179" edge="1">
          <mxGeometry relative="1" as="geometry">
            <mxPoint x="935" y="2280" as="sourcePoint" />
            <mxPoint x="705" y="2330" as="targetPoint" />
          </mxGeometry>
        </mxCell>
        <mxCell id="23kF0OT1ndb0dFso3XJ4-223" value="N" style="edgeLabel;html=1;align=center;verticalAlign=middle;resizable=0;points=[];" parent="23kF0OT1ndb0dFso3XJ4-213" vertex="1" connectable="0">
          <mxGeometry x="-0.1229" y="-1" relative="1" as="geometry">
            <mxPoint x="-7" y="10" as="offset" />
          </mxGeometry>
        </mxCell>
        <mxCell id="23kF0OT1ndb0dFso3XJ4-214" value="" style="endArrow=none;html=1;rounded=0;entryX=0.5;entryY=0;entryDx=0;entryDy=0;exitX=0.5;exitY=1;exitDx=0;exitDy=0;" parent="1" source="23kF0OT1ndb0dFso3XJ4-173" target="23kF0OT1ndb0dFso3XJ4-179" edge="1">
          <mxGeometry relative="1" as="geometry">
            <mxPoint x="1080" y="2280" as="sourcePoint" />
            <mxPoint x="1155" y="2370" as="targetPoint" />
          </mxGeometry>
        </mxCell>
        <mxCell id="23kF0OT1ndb0dFso3XJ4-215" value="" style="endArrow=none;html=1;rounded=0;entryX=0.5;entryY=0;entryDx=0;entryDy=0;exitX=0.5;exitY=1;exitDx=0;exitDy=0;" parent="1" source="23kF0OT1ndb0dFso3XJ4-174" target="23kF0OT1ndb0dFso3XJ4-179" edge="1">
          <mxGeometry relative="1" as="geometry">
            <mxPoint x="1090" y="2290" as="sourcePoint" />
            <mxPoint x="1005" y="2380" as="targetPoint" />
          </mxGeometry>
        </mxCell>
        <mxCell id="23kF0OT1ndb0dFso3XJ4-225" value="N" style="edgeLabel;html=1;align=center;verticalAlign=middle;resizable=0;points=[];" parent="1" vertex="1" connectable="0">
          <mxGeometry x="992.4968411031048" y="2359.9962592589072" as="geometry">
            <mxPoint x="80" y="-59" as="offset" />
          </mxGeometry>
        </mxCell>
        <mxCell id="23kF0OT1ndb0dFso3XJ4-228" value="N" style="edgeLabel;html=1;align=center;verticalAlign=middle;resizable=0;points=[];" parent="1" vertex="1" connectable="0">
          <mxGeometry x="1104.9968411031048" y="2349.9962592589072" as="geometry">
            <mxPoint x="80" y="-59" as="offset" />
          </mxGeometry>
        </mxCell>
        <mxCell id="23kF0OT1ndb0dFso3XJ4-244" style="edgeStyle=orthogonalEdgeStyle;rounded=0;orthogonalLoop=1;jettySize=auto;html=1;entryX=0.5;entryY=0;entryDx=0;entryDy=0;" parent="1" source="23kF0OT1ndb0dFso3XJ4-229" target="23kF0OT1ndb0dFso3XJ4-230" edge="1">
          <mxGeometry relative="1" as="geometry" />
        </mxCell>
        <mxCell id="23kF0OT1ndb0dFso3XJ4-268" style="edgeStyle=orthogonalEdgeStyle;rounded=0;orthogonalLoop=1;jettySize=auto;html=1;entryX=0;entryY=0.5;entryDx=0;entryDy=0;" parent="1" source="23kF0OT1ndb0dFso3XJ4-229" target="23kF0OT1ndb0dFso3XJ4-266" edge="1">
          <mxGeometry relative="1" as="geometry" />
        </mxCell>
        <mxCell id="23kF0OT1ndb0dFso3XJ4-229" value="Система автоматизации учета и отслеживания посылок в логистических компаниях" style="whiteSpace=wrap;html=1;align=center;" parent="1" vertex="1">
          <mxGeometry x="765" y="2590" width="195" height="130" as="geometry" />
        </mxCell>
        <mxCell id="23kF0OT1ndb0dFso3XJ4-230" value="Имеет" style="shape=rhombus;perimeter=rhombusPerimeter;whiteSpace=wrap;html=1;align=center;" parent="1" vertex="1">
          <mxGeometry x="802.5" y="2800" width="120" height="60" as="geometry" />
        </mxCell>
        <mxCell id="23kF0OT1ndb0dFso3XJ4-255" style="edgeStyle=orthogonalEdgeStyle;rounded=0;orthogonalLoop=1;jettySize=auto;html=1;entryX=0.5;entryY=0;entryDx=0;entryDy=0;endArrow=none;endFill=0;" parent="1" source="23kF0OT1ndb0dFso3XJ4-231" target="23kF0OT1ndb0dFso3XJ4-254" edge="1">
          <mxGeometry relative="1" as="geometry" />
        </mxCell>
        <mxCell id="23kF0OT1ndb0dFso3XJ4-231" value="Подсистема авторизации/регистрации" style="whiteSpace=wrap;html=1;align=center;" parent="1" vertex="1">
          <mxGeometry x="-280" y="3040" width="110" height="50" as="geometry" />
        </mxCell>
        <mxCell id="23kF0OT1ndb0dFso3XJ4-246" style="edgeStyle=orthogonalEdgeStyle;rounded=0;orthogonalLoop=1;jettySize=auto;html=1;entryX=0.5;entryY=0;entryDx=0;entryDy=0;endArrow=none;endFill=0;" parent="1" source="23kF0OT1ndb0dFso3XJ4-232" target="23kF0OT1ndb0dFso3XJ4-245" edge="1">
          <mxGeometry relative="1" as="geometry" />
        </mxCell>
        <mxCell id="23kF0OT1ndb0dFso3XJ4-232" value="Подсистема используемых данных" style="whiteSpace=wrap;html=1;align=center;" parent="1" vertex="1">
          <mxGeometry x="175" y="3040" width="100" height="50" as="geometry" />
        </mxCell>
        <mxCell id="23kF0OT1ndb0dFso3XJ4-233" value="Подсистема добавления посылки" style="whiteSpace=wrap;html=1;align=center;" parent="1" vertex="1">
          <mxGeometry x="765" y="3030" width="125" height="60" as="geometry" />
        </mxCell>
        <mxCell id="23kF0OT1ndb0dFso3XJ4-234" value="Подсистема изменения статуса посылки" style="whiteSpace=wrap;html=1;align=center;" parent="1" vertex="1">
          <mxGeometry x="1325" y="3242.5" width="110" height="50" as="geometry" />
        </mxCell>
        <mxCell id="23kF0OT1ndb0dFso3XJ4-235" value="Подсистема поиска посылки" style="whiteSpace=wrap;html=1;align=center;" parent="1" vertex="1">
          <mxGeometry x="1640" y="3125" width="110" height="50" as="geometry" />
        </mxCell>
        <mxCell id="23kF0OT1ndb0dFso3XJ4-239" value="" style="endArrow=none;html=1;rounded=0;exitX=0.5;exitY=1;exitDx=0;exitDy=0;entryX=0.5;entryY=0;entryDx=0;entryDy=0;" parent="1" source="23kF0OT1ndb0dFso3XJ4-230" target="23kF0OT1ndb0dFso3XJ4-235" edge="1">
          <mxGeometry relative="1" as="geometry">
            <mxPoint x="873" y="2870" as="sourcePoint" />
            <mxPoint x="1275" y="3050" as="targetPoint" />
          </mxGeometry>
        </mxCell>
        <mxCell id="23kF0OT1ndb0dFso3XJ4-240" value="" style="endArrow=none;html=1;rounded=0;exitX=0.5;exitY=1;exitDx=0;exitDy=0;entryX=0.5;entryY=0;entryDx=0;entryDy=0;" parent="1" source="23kF0OT1ndb0dFso3XJ4-230" target="23kF0OT1ndb0dFso3XJ4-234" edge="1">
          <mxGeometry relative="1" as="geometry">
            <mxPoint x="835" y="2870" as="sourcePoint" />
            <mxPoint x="1082" y="3040" as="targetPoint" />
          </mxGeometry>
        </mxCell>
        <mxCell id="23kF0OT1ndb0dFso3XJ4-241" value="" style="endArrow=none;html=1;rounded=0;exitX=0.5;exitY=1;exitDx=0;exitDy=0;entryX=0.5;entryY=0;entryDx=0;entryDy=0;" parent="1" source="23kF0OT1ndb0dFso3XJ4-230" target="23kF0OT1ndb0dFso3XJ4-233" edge="1">
          <mxGeometry relative="1" as="geometry">
            <mxPoint x="808" y="2860" as="sourcePoint" />
            <mxPoint x="905" y="3030" as="targetPoint" />
          </mxGeometry>
        </mxCell>
        <mxCell id="23kF0OT1ndb0dFso3XJ4-242" value="" style="endArrow=none;html=1;rounded=0;exitX=0.5;exitY=1;exitDx=0;exitDy=0;entryX=0.5;entryY=0;entryDx=0;entryDy=0;" parent="1" source="23kF0OT1ndb0dFso3XJ4-230" target="23kF0OT1ndb0dFso3XJ4-232" edge="1">
          <mxGeometry relative="1" as="geometry">
            <mxPoint x="663" y="2830" as="sourcePoint" />
            <mxPoint x="610" y="3000" as="targetPoint" />
          </mxGeometry>
        </mxCell>
        <mxCell id="23kF0OT1ndb0dFso3XJ4-243" value="" style="endArrow=none;html=1;rounded=0;exitX=0.5;exitY=1;exitDx=0;exitDy=0;entryX=0.5;entryY=0;entryDx=0;entryDy=0;" parent="1" source="23kF0OT1ndb0dFso3XJ4-230" target="23kF0OT1ndb0dFso3XJ4-231" edge="1">
          <mxGeometry relative="1" as="geometry">
            <mxPoint x="723" y="2850" as="sourcePoint" />
            <mxPoint x="515" y="3020" as="targetPoint" />
          </mxGeometry>
        </mxCell>
        <mxCell id="23kF0OT1ndb0dFso3XJ4-245" value="Хранит" style="shape=rhombus;perimeter=rhombusPerimeter;whiteSpace=wrap;html=1;align=center;" parent="1" vertex="1">
          <mxGeometry x="165" y="3150" width="120" height="60" as="geometry" />
        </mxCell>
        <mxCell id="23kF0OT1ndb0dFso3XJ4-247" value="Аккаунт" style="whiteSpace=wrap;html=1;align=center;" parent="1" vertex="1">
          <mxGeometry x="15" y="3340" width="100" height="40" as="geometry" />
        </mxCell>
        <mxCell id="23kF0OT1ndb0dFso3XJ4-249" value="" style="endArrow=none;html=1;rounded=0;exitX=0.5;exitY=1;exitDx=0;exitDy=0;entryX=0.5;entryY=0;entryDx=0;entryDy=0;" parent="1" source="23kF0OT1ndb0dFso3XJ4-245" target="23kF0OT1ndb0dFso3XJ4-247" edge="1">
          <mxGeometry relative="1" as="geometry">
            <mxPoint x="355" y="3210" as="sourcePoint" />
            <mxPoint x="147" y="3380" as="targetPoint" />
          </mxGeometry>
        </mxCell>
        <mxCell id="23kF0OT1ndb0dFso3XJ4-250" value="Данные о посылке" style="whiteSpace=wrap;html=1;align=center;" parent="1" vertex="1">
          <mxGeometry x="175" y="3330" width="100" height="40" as="geometry" />
        </mxCell>
        <mxCell id="23kF0OT1ndb0dFso3XJ4-251" value="" style="endArrow=none;html=1;rounded=0;exitX=0.5;exitY=0;exitDx=0;exitDy=0;entryX=0.5;entryY=1;entryDx=0;entryDy=0;" parent="1" source="23kF0OT1ndb0dFso3XJ4-250" target="23kF0OT1ndb0dFso3XJ4-245" edge="1">
          <mxGeometry relative="1" as="geometry">
            <mxPoint x="483" y="2900" as="sourcePoint" />
            <mxPoint x="275" y="3070" as="targetPoint" />
          </mxGeometry>
        </mxCell>
        <mxCell id="23kF0OT1ndb0dFso3XJ4-254" value="Создает" style="shape=rhombus;perimeter=rhombusPerimeter;whiteSpace=wrap;html=1;align=center;" parent="1" vertex="1">
          <mxGeometry x="-285" y="3140" width="120" height="60" as="geometry" />
        </mxCell>
        <mxCell id="23kF0OT1ndb0dFso3XJ4-256" value="" style="endArrow=none;html=1;rounded=0;exitX=0.5;exitY=0;exitDx=0;exitDy=0;entryX=0.5;entryY=1;entryDx=0;entryDy=0;" parent="1" source="23kF0OT1ndb0dFso3XJ4-247" target="23kF0OT1ndb0dFso3XJ4-254" edge="1">
          <mxGeometry relative="1" as="geometry">
            <mxPoint x="-45" y="3260" as="sourcePoint" />
            <mxPoint x="-195" y="3200" as="targetPoint" />
          </mxGeometry>
        </mxCell>
        <mxCell id="23kF0OT1ndb0dFso3XJ4-257" value="Авторизует" style="shape=rhombus;perimeter=rhombusPerimeter;whiteSpace=wrap;html=1;align=center;" parent="1" vertex="1">
          <mxGeometry x="-425" y="3140" width="120" height="60" as="geometry" />
        </mxCell>
        <mxCell id="23kF0OT1ndb0dFso3XJ4-258" value="Регистрирует" style="shape=rhombus;perimeter=rhombusPerimeter;whiteSpace=wrap;html=1;align=center;" parent="1" vertex="1">
          <mxGeometry x="-585" y="3140" width="120" height="60" as="geometry" />
        </mxCell>
        <mxCell id="23kF0OT1ndb0dFso3XJ4-259" value="Оператор логист. компании" style="whiteSpace=wrap;html=1;align=center;" parent="1" vertex="1">
          <mxGeometry x="-490" y="3260" width="100" height="40" as="geometry" />
        </mxCell>
        <mxCell id="23kF0OT1ndb0dFso3XJ4-260" value="" style="endArrow=none;html=1;rounded=0;entryX=0.5;entryY=0;entryDx=0;entryDy=0;" parent="1" target="23kF0OT1ndb0dFso3XJ4-257" edge="1">
          <mxGeometry relative="1" as="geometry">
            <mxPoint x="-225" y="3090" as="sourcePoint" />
            <mxPoint x="-545" y="3100" as="targetPoint" />
          </mxGeometry>
        </mxCell>
        <mxCell id="23kF0OT1ndb0dFso3XJ4-261" value="" style="endArrow=none;html=1;rounded=0;exitX=0.5;exitY=1;exitDx=0;exitDy=0;entryX=0.5;entryY=0;entryDx=0;entryDy=0;" parent="1" source="23kF0OT1ndb0dFso3XJ4-231" target="23kF0OT1ndb0dFso3XJ4-258" edge="1">
          <mxGeometry relative="1" as="geometry">
            <mxPoint x="-335" y="2990" as="sourcePoint" />
            <mxPoint x="-495" y="3050" as="targetPoint" />
          </mxGeometry>
        </mxCell>
        <mxCell id="23kF0OT1ndb0dFso3XJ4-263" value="" style="endArrow=none;html=1;rounded=0;exitX=0.5;exitY=1;exitDx=0;exitDy=0;entryX=0.5;entryY=0;entryDx=0;entryDy=0;" parent="1" source="23kF0OT1ndb0dFso3XJ4-257" target="23kF0OT1ndb0dFso3XJ4-259" edge="1">
          <mxGeometry relative="1" as="geometry">
            <mxPoint x="-345" y="3200" as="sourcePoint" />
            <mxPoint x="-505" y="3260" as="targetPoint" />
          </mxGeometry>
        </mxCell>
        <mxCell id="23kF0OT1ndb0dFso3XJ4-264" value="" style="endArrow=none;html=1;rounded=0;exitX=0.5;exitY=1;exitDx=0;exitDy=0;entryX=0.5;entryY=0;entryDx=0;entryDy=0;" parent="1" source="23kF0OT1ndb0dFso3XJ4-258" target="23kF0OT1ndb0dFso3XJ4-259" edge="1">
          <mxGeometry relative="1" as="geometry">
            <mxPoint x="-355" y="3210" as="sourcePoint" />
            <mxPoint x="-445" y="3280" as="targetPoint" />
          </mxGeometry>
        </mxCell>
        <mxCell id="23kF0OT1ndb0dFso3XJ4-265" value="Формирует" style="shape=rhombus;perimeter=rhombusPerimeter;whiteSpace=wrap;html=1;align=center;" parent="1" vertex="1">
          <mxGeometry x="605" y="3140" width="120" height="60" as="geometry" />
        </mxCell>
        <mxCell id="23kF0OT1ndb0dFso3XJ4-269" style="edgeStyle=orthogonalEdgeStyle;rounded=0;orthogonalLoop=1;jettySize=auto;html=1;entryX=0;entryY=0.5;entryDx=0;entryDy=0;" parent="1" source="23kF0OT1ndb0dFso3XJ4-266" target="23kF0OT1ndb0dFso3XJ4-267" edge="1">
          <mxGeometry relative="1" as="geometry" />
        </mxCell>
        <mxCell id="23kF0OT1ndb0dFso3XJ4-266" value="Это" style="shape=rhombus;perimeter=rhombusPerimeter;whiteSpace=wrap;html=1;align=center;" parent="1" vertex="1">
          <mxGeometry x="1050" y="2625" width="120" height="60" as="geometry" />
        </mxCell>
        <mxCell id="23kF0OT1ndb0dFso3XJ4-267" value="Информационная система" style="whiteSpace=wrap;html=1;align=center;" parent="1" vertex="1">
          <mxGeometry x="1250" y="2632.5" width="175" height="45" as="geometry" />
        </mxCell>
        <mxCell id="23kF0OT1ndb0dFso3XJ4-270" value="" style="endArrow=none;html=1;rounded=0;exitX=0.5;exitY=1;exitDx=0;exitDy=0;entryX=0.5;entryY=0;entryDx=0;entryDy=0;" parent="1" source="23kF0OT1ndb0dFso3XJ4-233" target="23kF0OT1ndb0dFso3XJ4-265" edge="1">
          <mxGeometry relative="1" as="geometry">
            <mxPoint x="873" y="2870" as="sourcePoint" />
            <mxPoint x="830" y="3040" as="targetPoint" />
          </mxGeometry>
        </mxCell>
        <mxCell id="23kF0OT1ndb0dFso3XJ4-285" style="edgeStyle=orthogonalEdgeStyle;rounded=0;orthogonalLoop=1;jettySize=auto;html=1;entryX=0.5;entryY=0;entryDx=0;entryDy=0;" parent="1" source="23kF0OT1ndb0dFso3XJ4-282" target="23kF0OT1ndb0dFso3XJ4-283" edge="1">
          <mxGeometry relative="1" as="geometry" />
        </mxCell>
        <mxCell id="23kF0OT1ndb0dFso3XJ4-282" value="Рассчитывает" style="shape=rhombus;perimeter=rhombusPerimeter;whiteSpace=wrap;html=1;align=center;" parent="1" vertex="1">
          <mxGeometry x="1320" y="3342.5" width="120" height="60" as="geometry" />
        </mxCell>
        <mxCell id="23kF0OT1ndb0dFso3XJ4-283" value="Ориентировочная дата доставки" style="whiteSpace=wrap;html=1;align=center;" parent="1" vertex="1">
          <mxGeometry x="1325" y="3430" width="110" height="50" as="geometry" />
        </mxCell>
        <mxCell id="23kF0OT1ndb0dFso3XJ4-293" style="edgeStyle=orthogonalEdgeStyle;rounded=0;orthogonalLoop=1;jettySize=auto;html=1;entryX=0.5;entryY=0;entryDx=0;entryDy=0;" parent="1" source="23kF0OT1ndb0dFso3XJ4-286" target="23kF0OT1ndb0dFso3XJ4-288" edge="1">
          <mxGeometry relative="1" as="geometry">
            <Array as="points">
              <mxPoint x="1520" y="3510" />
              <mxPoint x="1385" y="3510" />
            </Array>
          </mxGeometry>
        </mxCell>
        <mxCell id="23kF0OT1ndb0dFso3XJ4-286" value="Сохраняет" style="shape=rhombus;perimeter=rhombusPerimeter;whiteSpace=wrap;html=1;align=center;" parent="1" vertex="1">
          <mxGeometry x="1460" y="3332.5" width="120" height="60" as="geometry" />
        </mxCell>
        <mxCell id="23kF0OT1ndb0dFso3XJ4-287" value="" style="endArrow=none;html=1;rounded=0;exitX=0.5;exitY=1;exitDx=0;exitDy=0;entryX=0.5;entryY=0;entryDx=0;entryDy=0;" parent="1" source="23kF0OT1ndb0dFso3XJ4-234" target="23kF0OT1ndb0dFso3XJ4-286" edge="1">
          <mxGeometry relative="1" as="geometry">
            <mxPoint x="1480" y="3230" as="sourcePoint" />
            <mxPoint x="1922" y="3620" as="targetPoint" />
          </mxGeometry>
        </mxCell>
        <mxCell id="23kF0OT1ndb0dFso3XJ4-294" value="" style="edgeStyle=orthogonalEdgeStyle;rounded=0;orthogonalLoop=1;jettySize=auto;html=1;" parent="1" source="23kF0OT1ndb0dFso3XJ4-288" target="23kF0OT1ndb0dFso3XJ4-289" edge="1">
          <mxGeometry relative="1" as="geometry" />
        </mxCell>
        <mxCell id="23kF0OT1ndb0dFso3XJ4-288" value="Статус" style="whiteSpace=wrap;html=1;align=center;" parent="1" vertex="1">
          <mxGeometry x="1335" y="3530" width="100" height="40" as="geometry" />
        </mxCell>
        <mxCell id="cS1RMMrcoIdH4QqEZmh_-38" style="edgeStyle=orthogonalEdgeStyle;rounded=0;orthogonalLoop=1;jettySize=auto;html=1;exitX=0.5;exitY=1;exitDx=0;exitDy=0;entryX=0.5;entryY=1;entryDx=0;entryDy=0;" edge="1" parent="1" source="23kF0OT1ndb0dFso3XJ4-289" target="23kF0OT1ndb0dFso3XJ4-250">
          <mxGeometry relative="1" as="geometry" />
        </mxCell>
        <mxCell id="23kF0OT1ndb0dFso3XJ4-289" value="Сохраняется в" style="shape=rhombus;perimeter=rhombusPerimeter;whiteSpace=wrap;html=1;align=center;" parent="1" vertex="1">
          <mxGeometry x="1325" y="3630" width="120" height="60" as="geometry" />
        </mxCell>
        <mxCell id="cS1RMMrcoIdH4QqEZmh_-7" style="edgeStyle=orthogonalEdgeStyle;rounded=0;orthogonalLoop=1;jettySize=auto;html=1;exitX=0.5;exitY=1;exitDx=0;exitDy=0;entryX=1;entryY=0.5;entryDx=0;entryDy=0;" edge="1" parent="1" source="23kF0OT1ndb0dFso3XJ4-295" target="23kF0OT1ndb0dFso3XJ4-250">
          <mxGeometry relative="1" as="geometry">
            <Array as="points">
              <mxPoint x="1000" y="3350" />
            </Array>
          </mxGeometry>
        </mxCell>
        <mxCell id="23kF0OT1ndb0dFso3XJ4-295" value="Записывает&amp;nbsp;" style="shape=rhombus;perimeter=rhombusPerimeter;whiteSpace=wrap;html=1;align=center;" parent="1" vertex="1">
          <mxGeometry x="930" y="3140" width="140" height="80" as="geometry" />
        </mxCell>
        <mxCell id="23kF0OT1ndb0dFso3XJ4-296" value="" style="endArrow=none;html=1;rounded=0;exitX=0.5;exitY=1;exitDx=0;exitDy=0;entryX=0.5;entryY=0;entryDx=0;entryDy=0;" parent="1" source="23kF0OT1ndb0dFso3XJ4-233" target="23kF0OT1ndb0dFso3XJ4-295" edge="1">
          <mxGeometry relative="1" as="geometry">
            <mxPoint x="913" y="2910" as="sourcePoint" />
            <mxPoint x="1355" y="3300" as="targetPoint" />
          </mxGeometry>
        </mxCell>
        <mxCell id="23kF0OT1ndb0dFso3XJ4-298" value="Устанавливает" style="shape=rhombus;perimeter=rhombusPerimeter;whiteSpace=wrap;html=1;align=center;" parent="1" vertex="1">
          <mxGeometry x="767.5" y="3150" width="120" height="60" as="geometry" />
        </mxCell>
        <mxCell id="23kF0OT1ndb0dFso3XJ4-299" value="Начальный статус" style="whiteSpace=wrap;html=1;align=center;" parent="1" vertex="1">
          <mxGeometry x="777.5" y="3260" width="100" height="40" as="geometry" />
        </mxCell>
        <mxCell id="23kF0OT1ndb0dFso3XJ4-301" value="" style="endArrow=none;html=1;rounded=0;exitX=0.5;exitY=1;exitDx=0;exitDy=0;entryX=0.5;entryY=0;entryDx=0;entryDy=0;" parent="1" source="23kF0OT1ndb0dFso3XJ4-298" target="23kF0OT1ndb0dFso3XJ4-299" edge="1">
          <mxGeometry relative="1" as="geometry">
            <mxPoint x="985" y="3230" as="sourcePoint" />
            <mxPoint x="920" y="3290" as="targetPoint" />
          </mxGeometry>
        </mxCell>
        <mxCell id="cS1RMMrcoIdH4QqEZmh_-4" value="" style="endArrow=none;html=1;rounded=0;exitX=0.5;exitY=0;exitDx=0;exitDy=0;" edge="1" parent="1" source="23kF0OT1ndb0dFso3XJ4-298">
          <mxGeometry width="50" height="50" relative="1" as="geometry">
            <mxPoint x="780" y="3140" as="sourcePoint" />
            <mxPoint x="830" y="3090" as="targetPoint" />
          </mxGeometry>
        </mxCell>
        <mxCell id="cS1RMMrcoIdH4QqEZmh_-5" value="" style="endArrow=none;html=1;rounded=0;exitX=0.5;exitY=0;exitDx=0;exitDy=0;entryX=0.5;entryY=1;entryDx=0;entryDy=0;" edge="1" parent="1" source="cS1RMMrcoIdH4QqEZmh_-6" target="23kF0OT1ndb0dFso3XJ4-265">
          <mxGeometry width="50" height="50" relative="1" as="geometry">
            <mxPoint x="550" y="3270" as="sourcePoint" />
            <mxPoint x="554.5" y="3210" as="targetPoint" />
          </mxGeometry>
        </mxCell>
        <mxCell id="cS1RMMrcoIdH4QqEZmh_-6" value="Общая информация" style="whiteSpace=wrap;html=1;align=center;" vertex="1" parent="1">
          <mxGeometry x="615" y="3242.5" width="100" height="40" as="geometry" />
        </mxCell>
        <mxCell id="cS1RMMrcoIdH4QqEZmh_-14" style="edgeStyle=orthogonalEdgeStyle;rounded=0;orthogonalLoop=1;jettySize=auto;html=1;exitX=0.5;exitY=1;exitDx=0;exitDy=0;" edge="1" parent="1" source="cS1RMMrcoIdH4QqEZmh_-8" target="23kF0OT1ndb0dFso3XJ4-288">
          <mxGeometry relative="1" as="geometry">
            <Array as="points">
              <mxPoint x="1230" y="3510" />
              <mxPoint x="1385" y="3510" />
            </Array>
          </mxGeometry>
        </mxCell>
        <mxCell id="cS1RMMrcoIdH4QqEZmh_-8" value="Обновляет" style="shape=rhombus;perimeter=rhombusPerimeter;whiteSpace=wrap;html=1;align=center;" vertex="1" parent="1">
          <mxGeometry x="1170" y="3320" width="120" height="60" as="geometry" />
        </mxCell>
        <mxCell id="cS1RMMrcoIdH4QqEZmh_-10" value="" style="endArrow=none;html=1;rounded=0;exitX=0.5;exitY=0;exitDx=0;exitDy=0;entryX=0.5;entryY=1;entryDx=0;entryDy=0;" edge="1" parent="1" source="23kF0OT1ndb0dFso3XJ4-282" target="23kF0OT1ndb0dFso3XJ4-234">
          <mxGeometry width="50" height="50" relative="1" as="geometry">
            <mxPoint x="1330" y="3342.5" as="sourcePoint" />
            <mxPoint x="1380" y="3292.5" as="targetPoint" />
          </mxGeometry>
        </mxCell>
        <mxCell id="cS1RMMrcoIdH4QqEZmh_-11" value="" style="endArrow=none;html=1;rounded=0;exitX=0.5;exitY=0;exitDx=0;exitDy=0;entryX=0.5;entryY=1;entryDx=0;entryDy=0;" edge="1" parent="1" source="cS1RMMrcoIdH4QqEZmh_-8" target="23kF0OT1ndb0dFso3XJ4-234">
          <mxGeometry width="50" height="50" relative="1" as="geometry">
            <mxPoint x="1275" y="3320" as="sourcePoint" />
            <mxPoint x="1325" y="3270" as="targetPoint" />
          </mxGeometry>
        </mxCell>
        <mxCell id="cS1RMMrcoIdH4QqEZmh_-18" style="edgeStyle=orthogonalEdgeStyle;rounded=0;orthogonalLoop=1;jettySize=auto;html=1;exitX=0.5;exitY=1;exitDx=0;exitDy=0;entryX=0.5;entryY=0;entryDx=0;entryDy=0;" edge="1" parent="1" source="cS1RMMrcoIdH4QqEZmh_-16" target="cS1RMMrcoIdH4QqEZmh_-17">
          <mxGeometry relative="1" as="geometry" />
        </mxCell>
        <mxCell id="cS1RMMrcoIdH4QqEZmh_-16" value="Ищет&amp;nbsp;" style="shape=rhombus;perimeter=rhombusPerimeter;whiteSpace=wrap;html=1;align=center;" vertex="1" parent="1">
          <mxGeometry x="1620" y="3210" width="120" height="60" as="geometry" />
        </mxCell>
        <mxCell id="cS1RMMrcoIdH4QqEZmh_-32" style="edgeStyle=orthogonalEdgeStyle;rounded=0;orthogonalLoop=1;jettySize=auto;html=1;exitX=0.5;exitY=1;exitDx=0;exitDy=0;entryX=0.5;entryY=0;entryDx=0;entryDy=0;" edge="1" parent="1" source="cS1RMMrcoIdH4QqEZmh_-17" target="cS1RMMrcoIdH4QqEZmh_-19">
          <mxGeometry relative="1" as="geometry" />
        </mxCell>
        <mxCell id="cS1RMMrcoIdH4QqEZmh_-17" value="Информация о посылке" style="whiteSpace=wrap;html=1;align=center;" vertex="1" parent="1">
          <mxGeometry x="1625" y="3292.5" width="110" height="50" as="geometry" />
        </mxCell>
        <mxCell id="cS1RMMrcoIdH4QqEZmh_-33" style="edgeStyle=orthogonalEdgeStyle;rounded=0;orthogonalLoop=1;jettySize=auto;html=1;entryX=0.5;entryY=0;entryDx=0;entryDy=0;" edge="1" parent="1" source="cS1RMMrcoIdH4QqEZmh_-19">
          <mxGeometry relative="1" as="geometry">
            <mxPoint x="1679.9999999999995" y="3460" as="targetPoint" />
          </mxGeometry>
        </mxCell>
        <mxCell id="cS1RMMrcoIdH4QqEZmh_-19" value="Используя" style="shape=rhombus;perimeter=rhombusPerimeter;whiteSpace=wrap;html=1;align=center;" vertex="1" parent="1">
          <mxGeometry x="1620" y="3370" width="120" height="60" as="geometry" />
        </mxCell>
        <mxCell id="cS1RMMrcoIdH4QqEZmh_-20" value="Текущий статус" style="ellipse;shape=doubleEllipse;margin=3;whiteSpace=wrap;html=1;align=center;" vertex="1" parent="1">
          <mxGeometry x="1991.25" y="2325" width="122.5" height="60" as="geometry" />
        </mxCell>
        <mxCell id="cS1RMMrcoIdH4QqEZmh_-22" style="edgeStyle=orthogonalEdgeStyle;rounded=0;orthogonalLoop=1;jettySize=auto;html=1;entryX=0;entryY=0.5;entryDx=0;entryDy=0;endArrow=none;endFill=0;" edge="1" target="cS1RMMrcoIdH4QqEZmh_-24" parent="1">
          <mxGeometry relative="1" as="geometry">
            <Array as="points">
              <mxPoint x="2230" y="1890" />
              <mxPoint x="2230" y="1945" />
            </Array>
            <mxPoint x="2220" y="1890" as="sourcePoint" />
          </mxGeometry>
        </mxCell>
        <mxCell id="cS1RMMrcoIdH4QqEZmh_-24" value="Ориентировочная дата доставки" style="ellipse;whiteSpace=wrap;html=1;align=center;" vertex="1" parent="1">
          <mxGeometry x="2265" y="1920" width="150" height="50" as="geometry" />
        </mxCell>
        <mxCell id="cS1RMMrcoIdH4QqEZmh_-26" value="Текущее местоположение посылки" style="ellipse;whiteSpace=wrap;html=1;align=center;" vertex="1" parent="1">
          <mxGeometry x="2270" y="1810" width="140" height="60" as="geometry" />
        </mxCell>
        <mxCell id="cS1RMMrcoIdH4QqEZmh_-27" value="" style="endArrow=none;html=1;rounded=0;exitX=1;exitY=0.5;exitDx=0;exitDy=0;entryX=0;entryY=0.5;entryDx=0;entryDy=0;" edge="1" parent="1" source="23kF0OT1ndb0dFso3XJ4-48" target="cS1RMMrcoIdH4QqEZmh_-26">
          <mxGeometry width="50" height="50" relative="1" as="geometry">
            <mxPoint x="2270" y="1910" as="sourcePoint" />
            <mxPoint x="2320" y="1860" as="targetPoint" />
            <Array as="points">
              <mxPoint x="2230" y="1890" />
              <mxPoint x="2230" y="1840" />
            </Array>
          </mxGeometry>
        </mxCell>
        <mxCell id="cS1RMMrcoIdH4QqEZmh_-35" style="edgeStyle=orthogonalEdgeStyle;rounded=0;orthogonalLoop=1;jettySize=auto;html=1;" edge="1" parent="1" target="cS1RMMrcoIdH4QqEZmh_-34">
          <mxGeometry relative="1" as="geometry">
            <mxPoint x="1679.9999999999995" y="3510" as="sourcePoint" />
          </mxGeometry>
        </mxCell>
        <mxCell id="cS1RMMrcoIdH4QqEZmh_-36" style="edgeStyle=orthogonalEdgeStyle;rounded=0;orthogonalLoop=1;jettySize=auto;html=1;entryX=0.5;entryY=1;entryDx=0;entryDy=0;" edge="1" parent="1" source="cS1RMMrcoIdH4QqEZmh_-34" target="23kF0OT1ndb0dFso3XJ4-250">
          <mxGeometry relative="1" as="geometry">
            <Array as="points">
              <mxPoint x="1680" y="3740" />
              <mxPoint x="225" y="3740" />
            </Array>
          </mxGeometry>
        </mxCell>
        <mxCell id="cS1RMMrcoIdH4QqEZmh_-34" value="Ищет в" style="shape=rhombus;perimeter=rhombusPerimeter;whiteSpace=wrap;html=1;align=center;" vertex="1" parent="1">
          <mxGeometry x="1620" y="3540" width="120" height="60" as="geometry" />
        </mxCell>
        <mxCell id="cS1RMMrcoIdH4QqEZmh_-40" value="Трек-номер" style="whiteSpace=wrap;html=1;align=center;" vertex="1" parent="1">
          <mxGeometry x="1625" y="3460" width="110" height="50" as="geometry" />
        </mxCell>
        <mxCell id="cS1RMMrcoIdH4QqEZmh_-41" value="" style="endArrow=none;html=1;rounded=0;entryX=0.5;entryY=1;entryDx=0;entryDy=0;exitX=0.5;exitY=0;exitDx=0;exitDy=0;" edge="1" parent="1" source="cS1RMMrcoIdH4QqEZmh_-16" target="23kF0OT1ndb0dFso3XJ4-235">
          <mxGeometry width="50" height="50" relative="1" as="geometry">
            <mxPoint x="1640" y="3225" as="sourcePoint" />
            <mxPoint x="1690" y="3175" as="targetPoint" />
          </mxGeometry>
        </mxCell>
        <mxCell id="cS1RMMrcoIdH4QqEZmh_-45" style="edgeStyle=orthogonalEdgeStyle;rounded=0;orthogonalLoop=1;jettySize=auto;html=1;exitX=0.5;exitY=1;exitDx=0;exitDy=0;entryX=0.5;entryY=0;entryDx=0;entryDy=0;" edge="1" parent="1" source="cS1RMMrcoIdH4QqEZmh_-42" target="cS1RMMrcoIdH4QqEZmh_-43">
          <mxGeometry relative="1" as="geometry" />
        </mxCell>
        <mxCell id="cS1RMMrcoIdH4QqEZmh_-42" value="Отправляет" style="shape=rhombus;perimeter=rhombusPerimeter;whiteSpace=wrap;html=1;align=center;" vertex="1" parent="1">
          <mxGeometry x="1770" y="3210" width="120" height="60" as="geometry" />
        </mxCell>
        <mxCell id="cS1RMMrcoIdH4QqEZmh_-43" value="Информация о посылке" style="whiteSpace=wrap;html=1;align=center;" vertex="1" parent="1">
          <mxGeometry x="1775" y="3292.5" width="110" height="50" as="geometry" />
        </mxCell>
        <mxCell id="cS1RMMrcoIdH4QqEZmh_-44" value="" style="endArrow=none;html=1;rounded=0;exitX=0.5;exitY=1;exitDx=0;exitDy=0;entryX=0.5;entryY=0;entryDx=0;entryDy=0;" edge="1" parent="1" source="23kF0OT1ndb0dFso3XJ4-235" target="cS1RMMrcoIdH4QqEZmh_-42">
          <mxGeometry width="50" height="50" relative="1" as="geometry">
            <mxPoint x="1820" y="3175" as="sourcePoint" />
            <mxPoint x="1870" y="3125" as="targetPoint" />
          </mxGeometry>
        </mxCell>
      </root>
    </mxGraphModel>
  </diagram>
</mxfile>
